<mxfile host="app.diagrams.net" modified="2023-09-12T19:21:35.631Z" agent="Mozilla/5.0 (Windows NT 10.0; Win64; x64) AppleWebKit/537.36 (KHTML, like Gecko) Chrome/116.0.0.0 Safari/537.36" etag="4o4NG285FkAW6s9eGbzu" version="21.7.4" type="device">
  <diagram name="Página-1" id="nCAakwpTfPj_-MLJuVPu">
    <mxGraphModel dx="1707" dy="470" grid="1" gridSize="10" guides="1" tooltips="1" connect="1" arrows="1" fold="1" page="1" pageScale="1" pageWidth="827" pageHeight="1169" math="0" shadow="0">
      <root>
        <mxCell id="0" />
        <mxCell id="1" parent="0" />
        <mxCell id="1ZUU_Wz2wDAc_jjiC1iq-13" style="edgeStyle=orthogonalEdgeStyle;rounded=0;orthogonalLoop=1;jettySize=auto;html=1;exitX=0;exitY=0.5;exitDx=0;exitDy=0;" edge="1" parent="1" source="1ZUU_Wz2wDAc_jjiC1iq-1">
          <mxGeometry relative="1" as="geometry">
            <mxPoint x="60" y="560" as="targetPoint" />
            <Array as="points">
              <mxPoint x="150" y="480" />
              <mxPoint x="150" y="560" />
            </Array>
          </mxGeometry>
        </mxCell>
        <mxCell id="1ZUU_Wz2wDAc_jjiC1iq-1" value="Livros disponíveis" style="ellipse;whiteSpace=wrap;html=1;" vertex="1" parent="1">
          <mxGeometry x="230" y="440" width="120" height="80" as="geometry" />
        </mxCell>
        <mxCell id="1ZUU_Wz2wDAc_jjiC1iq-14" style="edgeStyle=orthogonalEdgeStyle;rounded=0;orthogonalLoop=1;jettySize=auto;html=1;exitX=0;exitY=0.5;exitDx=0;exitDy=0;" edge="1" parent="1" source="1ZUU_Wz2wDAc_jjiC1iq-2">
          <mxGeometry relative="1" as="geometry">
            <mxPoint x="70" y="560" as="targetPoint" />
          </mxGeometry>
        </mxCell>
        <mxCell id="1ZUU_Wz2wDAc_jjiC1iq-2" value="Livros emprestados" style="ellipse;whiteSpace=wrap;html=1;" vertex="1" parent="1">
          <mxGeometry x="230" y="545" width="120" height="80" as="geometry" />
        </mxCell>
        <mxCell id="1ZUU_Wz2wDAc_jjiC1iq-16" style="edgeStyle=orthogonalEdgeStyle;rounded=0;orthogonalLoop=1;jettySize=auto;html=1;exitX=0;exitY=0.5;exitDx=0;exitDy=0;" edge="1" parent="1" source="1ZUU_Wz2wDAc_jjiC1iq-3" target="1ZUU_Wz2wDAc_jjiC1iq-7">
          <mxGeometry relative="1" as="geometry">
            <Array as="points">
              <mxPoint x="230" y="690" />
              <mxPoint x="170" y="690" />
              <mxPoint x="170" y="560" />
            </Array>
          </mxGeometry>
        </mxCell>
        <mxCell id="1ZUU_Wz2wDAc_jjiC1iq-3" value="Histórico" style="ellipse;whiteSpace=wrap;html=1;" vertex="1" parent="1">
          <mxGeometry x="230" y="750" width="120" height="80" as="geometry" />
        </mxCell>
        <mxCell id="1ZUU_Wz2wDAc_jjiC1iq-12" style="edgeStyle=orthogonalEdgeStyle;rounded=0;orthogonalLoop=1;jettySize=auto;html=1;exitX=0;exitY=0.5;exitDx=0;exitDy=0;entryX=1;entryY=0.5;entryDx=0;entryDy=0;" edge="1" parent="1" source="1ZUU_Wz2wDAc_jjiC1iq-4" target="1ZUU_Wz2wDAc_jjiC1iq-7">
          <mxGeometry relative="1" as="geometry" />
        </mxCell>
        <mxCell id="1ZUU_Wz2wDAc_jjiC1iq-4" value="Registrar leitor" style="ellipse;whiteSpace=wrap;html=1;" vertex="1" parent="1">
          <mxGeometry x="230" y="330" width="120" height="80" as="geometry" />
        </mxCell>
        <mxCell id="1ZUU_Wz2wDAc_jjiC1iq-17" style="edgeStyle=orthogonalEdgeStyle;rounded=0;orthogonalLoop=1;jettySize=auto;html=1;entryX=0;entryY=0.5;entryDx=0;entryDy=0;" edge="1" parent="1" source="1ZUU_Wz2wDAc_jjiC1iq-5" target="1ZUU_Wz2wDAc_jjiC1iq-8">
          <mxGeometry relative="1" as="geometry" />
        </mxCell>
        <mxCell id="1ZUU_Wz2wDAc_jjiC1iq-22" style="edgeStyle=orthogonalEdgeStyle;rounded=0;orthogonalLoop=1;jettySize=auto;html=1;exitX=0;exitY=0.5;exitDx=0;exitDy=0;" edge="1" parent="1" source="1ZUU_Wz2wDAc_jjiC1iq-5" target="1ZUU_Wz2wDAc_jjiC1iq-7">
          <mxGeometry relative="1" as="geometry">
            <Array as="points">
              <mxPoint x="470" y="300" />
              <mxPoint x="20" y="300" />
            </Array>
          </mxGeometry>
        </mxCell>
        <mxCell id="1ZUU_Wz2wDAc_jjiC1iq-5" value="Empréstimo&amp;nbsp;" style="ellipse;whiteSpace=wrap;html=1;" vertex="1" parent="1">
          <mxGeometry x="470" y="420" width="120" height="80" as="geometry" />
        </mxCell>
        <mxCell id="1ZUU_Wz2wDAc_jjiC1iq-18" style="edgeStyle=orthogonalEdgeStyle;rounded=0;orthogonalLoop=1;jettySize=auto;html=1;exitX=1;exitY=0.5;exitDx=0;exitDy=0;" edge="1" parent="1" source="1ZUU_Wz2wDAc_jjiC1iq-6" target="1ZUU_Wz2wDAc_jjiC1iq-8">
          <mxGeometry relative="1" as="geometry" />
        </mxCell>
        <mxCell id="1ZUU_Wz2wDAc_jjiC1iq-21" style="edgeStyle=orthogonalEdgeStyle;rounded=0;orthogonalLoop=1;jettySize=auto;html=1;exitX=0;exitY=0.5;exitDx=0;exitDy=0;entryX=0.925;entryY=-0.2;entryDx=0;entryDy=0;entryPerimeter=0;" edge="1" parent="1" source="1ZUU_Wz2wDAc_jjiC1iq-6" target="1ZUU_Wz2wDAc_jjiC1iq-20">
          <mxGeometry relative="1" as="geometry">
            <Array as="points">
              <mxPoint x="470" y="870" />
              <mxPoint x="64" y="870" />
            </Array>
          </mxGeometry>
        </mxCell>
        <mxCell id="1ZUU_Wz2wDAc_jjiC1iq-6" value="Devolução" style="ellipse;whiteSpace=wrap;html=1;" vertex="1" parent="1">
          <mxGeometry x="470" y="570" width="120" height="80" as="geometry" />
        </mxCell>
        <mxCell id="1ZUU_Wz2wDAc_jjiC1iq-7" value="" style="image;html=1;image=img/lib/clip_art/people/Military_Officer_Black_128x128.png" vertex="1" parent="1">
          <mxGeometry x="-20" y="520" width="80" height="80" as="geometry" />
        </mxCell>
        <mxCell id="1ZUU_Wz2wDAc_jjiC1iq-8" value="" style="image;html=1;image=img/lib/clip_art/people/Scientist_Man_128x128.png" vertex="1" parent="1">
          <mxGeometry x="680" y="470" width="80" height="80" as="geometry" />
        </mxCell>
        <mxCell id="1ZUU_Wz2wDAc_jjiC1iq-15" style="edgeStyle=orthogonalEdgeStyle;rounded=0;orthogonalLoop=1;jettySize=auto;html=1;exitX=0;exitY=0.5;exitDx=0;exitDy=0;" edge="1" parent="1" source="1ZUU_Wz2wDAc_jjiC1iq-10">
          <mxGeometry relative="1" as="geometry">
            <mxPoint x="70" y="560" as="targetPoint" />
            <Array as="points">
              <mxPoint x="170" y="690" />
              <mxPoint x="170" y="580" />
              <mxPoint x="70" y="580" />
            </Array>
          </mxGeometry>
        </mxCell>
        <mxCell id="1ZUU_Wz2wDAc_jjiC1iq-10" value="Registrar leitor" style="ellipse;whiteSpace=wrap;html=1;" vertex="1" parent="1">
          <mxGeometry x="230" y="650" width="120" height="80" as="geometry" />
        </mxCell>
        <mxCell id="1ZUU_Wz2wDAc_jjiC1iq-19" value="leitor" style="text;html=1;align=center;verticalAlign=middle;resizable=0;points=[];autosize=1;strokeColor=none;fillColor=none;" vertex="1" parent="1">
          <mxGeometry x="765" y="518" width="50" height="30" as="geometry" />
        </mxCell>
        <mxCell id="1ZUU_Wz2wDAc_jjiC1iq-20" value="Biblioteca" style="text;html=1;align=center;verticalAlign=middle;resizable=0;points=[];autosize=1;strokeColor=none;fillColor=none;" vertex="1" parent="1">
          <mxGeometry x="-10" y="598" width="80" height="30" as="geometry" />
        </mxCell>
      </root>
    </mxGraphModel>
  </diagram>
</mxfile>
